<?xml version="1.0" encoding="UTF-8"?>
<!-- Generator: visioncortex VTracer 0.6.4 -->
<svg version="1.1" xmlns="http://www.w3.org/2000/svg" width="512" height="512">
<path d="M0 0 C8.94 6.6 16.11 15.32 18.47 26.42 C18.71 29.5 18.7 32.58 18.72 35.67 C18.75 36.9 18.75 36.9 18.79 38.16 C18.82 43.93 17.79 48.13 15.47 53.42 C16.28 53.5 17.08 53.59 17.91 53.67 C22.47 54.63 26.34 56.41 30.54 58.42 C31.37 58.82 32.21 59.22 33.08 59.64 C44.55 65.27 54.26 72.58 63.47 81.42 C64.29 82.18 65.11 82.94 65.96 83.72 C77.35 94.56 85.07 107.17 91.47 121.42 C91.96 122.49 92.44 123.56 92.94 124.66 C99.87 141.27 101.59 159.01 101.64 176.83 C101.65 179.06 101.66 181.3 101.68 183.53 C101.73 189.87 101.78 196.21 101.8 202.56 C101.82 228.24 101.82 228.24 106.47 253.42 C106.66 254.1 106.84 254.78 107.03 255.48 C111.63 272.2 120.3 287.26 131.47 300.42 C132.18 301.29 132.88 302.16 133.61 303.05 C138.8 309.18 144.7 313.9 151.03 318.77 C168.19 331.95 168.19 331.95 169.76 342.33 C170.81 352.48 169.59 360.96 163.47 369.42 C157.83 376.18 150.17 379.75 141.46 380.78 C138.19 380.91 134.93 380.92 131.66 380.88 C130.43 380.88 129.2 380.88 127.93 380.88 C124.59 380.88 121.25 380.86 117.91 380.83 C114.41 380.8 110.91 380.8 107.41 380.8 C100.79 380.78 94.18 380.75 87.56 380.71 C80.02 380.67 72.49 380.64 64.95 380.62 C49.46 380.58 33.96 380.51 18.47 380.42 C18.8 381.53 19.12 382.63 19.45 383.77 C22.11 393.29 20.39 403.4 16.11 412.23 C13.42 416.91 10.56 420.84 6.47 424.42 C5.54 425.27 4.62 426.11 3.66 426.98 C-6.04 434.87 -17.35 436.46 -29.53 435.42 C-37.76 433.81 -44.33 431.09 -50.53 425.42 C-51.39 424.66 -52.26 423.9 -53.15 423.11 C-61.91 413.2 -65.52 403.24 -65.76 390.08 C-65.47 386.71 -64.49 383.66 -63.53 380.42 C-64.17 380.43 -64.81 380.43 -65.46 380.43 C-81.06 380.52 -96.65 380.59 -112.24 380.63 C-119.78 380.65 -127.32 380.68 -134.86 380.72 C-141.44 380.76 -148.02 380.79 -154.59 380.8 C-158.07 380.8 -161.55 380.82 -165.03 380.84 C-168.92 380.88 -172.82 380.88 -176.71 380.88 C-177.85 380.89 -178.99 380.9 -180.16 380.92 C-190.13 380.87 -199.41 378.73 -206.73 371.57 C-213.66 363.27 -215.66 354.98 -215.04 344.42 C-214.13 335.45 -209.32 329.03 -202.53 323.42 C-200.62 321.97 -198.7 320.53 -196.78 319.11 C-176.11 303.78 -161.48 283.69 -153.09 259.3 C-152.87 258.65 -152.64 258.01 -152.41 257.35 C-148.5 245 -147.09 232.19 -147.12 219.3 C-147.12 217.1 -147.11 214.9 -147.09 212.7 C-147.05 208.03 -147.04 203.35 -147.03 198.67 C-146.91 148.52 -146.91 148.52 -138.53 126.42 C-138.28 125.76 -138.03 125.11 -137.78 124.43 C-131.64 108.47 -122.41 95.58 -110.53 83.42 C-109.79 82.62 -109.05 81.82 -108.29 81 C-96.43 68.44 -79.85 58.94 -63.53 53.42 C-62.54 53.42 -61.55 53.42 -60.53 53.42 C-61.01 52.29 -61.5 51.17 -62 50 C-63.75 45.32 -64.03 41.08 -63.96 36.11 C-63.96 35.27 -63.95 34.44 -63.94 33.58 C-63.61 21.47 -59.12 13.4 -50.91 4.71 C-37.57 -7.86 -15.41 -9.62 0 0 Z M-45.53 15.42 C-52.04 23.63 -53.41 32.12 -52.53 42.42 C-51.78 45.07 -50.87 47.01 -49.53 49.42 C-48.84 49.35 -48.14 49.28 -47.43 49.21 C-39.11 48.43 -30.87 48.27 -22.53 48.3 C-21.25 48.29 -19.98 48.29 -18.66 48.29 C-10.9 48.29 -3.25 48.63 4.47 49.42 C8.46 42.29 8.72 34.51 6.78 26.61 C3.51 17.65 -2.03 11.68 -10.53 7.42 C-23.47 2.39 -35.81 5.95 -45.53 15.42 Z " fill="#FFC400" transform="translate(278.52734375,38.578125)"/>
<path d="M0 0 C27.06 0 54.12 0 82 0 C85.17 12.67 84.8 23.85 78.12 35.44 C75.76 39.08 73.29 42.13 70 45 C69.07 45.85 68.14 46.69 67.19 47.56 C57.49 55.45 46.18 57.04 34 56 C25.77 54.39 19.2 51.66 13 46 C12.13 45.24 11.27 44.47 10.38 43.69 C1.65 33.81 -1.99 23.88 -2.23 10.76 C-1.93 7.11 -0.89 3.55 0 0 Z " fill="#FF9100" transform="translate(215,418)"/>
<path d="M0 0 C8.72 6.66 15.49 16.26 22 25 C22.63 25.83 23.25 26.66 23.89 27.52 C40.6 50.52 51.75 77.11 57.81 104.81 C58.01 105.67 58.2 106.54 58.4 107.42 C62.37 126.92 62.35 147.14 62.32 166.94 C62.31 170.82 62.34 174.69 62.36 178.56 C62.36 181.03 62.36 183.51 62.36 185.98 C62.37 187.14 62.38 188.29 62.39 189.47 C62.38 190.54 62.38 191.6 62.37 192.69 C62.37 193.63 62.37 194.56 62.37 195.52 C61.93 198.49 61.09 199.86 59 202 C56 202.5 56 202.5 53 202 C50.67 199.72 50.04 198.32 49.63 195.07 C49.63 193.93 49.63 192.78 49.63 191.61 C49.62 190.31 49.62 189.01 49.61 187.67 C49.61 186.97 49.62 186.28 49.62 185.56 C49.63 183.36 49.62 181.15 49.6 178.95 C49.56 172.68 49.56 166.41 49.56 160.15 C49.55 108.59 37.61 56.93 0.7 18.5 C0.14 17.92 -0.41 17.35 -0.98 16.76 C-2.05 15.65 -3.14 14.56 -4.24 13.49 C-6.79 10.88 -7.95 9.41 -8.41 5.74 C-8 3 -8 3 -6.81 1.12 C-4.3 -0.44 -2.93 -0.39 0 0 Z " fill="#FF9100" transform="translate(400,62)"/>
<path d="M0 0 C2.5 0.38 2.5 0.38 4.31 1.5 C6.21 4.5 6.23 5.87 5.5 9.38 C3.8 11.4 1.92 13.13 -0.02 14.93 C-32.18 46.73 -51.4 96.09 -51.69 140.81 C-51.69 141.53 -51.7 142.24 -51.7 142.98 C-51.71 145.25 -51.73 147.51 -51.75 149.78 C-51.81 156.22 -51.87 162.65 -51.9 169.09 C-51.92 173.04 -51.96 176.99 -52 180.95 C-52.02 182.45 -52.03 183.95 -52.03 185.45 C-52.03 187.54 -52.06 189.64 -52.08 191.73 C-52.09 192.92 -52.1 194.11 -52.11 195.34 C-52.54 198.65 -53.12 200.06 -55.5 202.38 C-58.5 202.88 -58.5 202.88 -61.5 202.38 C-64.43 199.38 -64.88 197.19 -64.87 193.07 C-64.88 192.01 -64.88 190.94 -64.89 189.85 C-64.88 188.7 -64.87 187.55 -64.86 186.36 C-64.86 184.56 -64.86 184.56 -64.86 182.72 C-64.86 180.16 -64.85 177.6 -64.84 175.04 C-64.81 171.21 -64.82 167.38 -64.82 163.55 C-64.8 144.19 -64.64 124.35 -60.38 105.38 C-60.16 104.4 -59.95 103.43 -59.73 102.43 C-51.05 64.47 -32.52 31.24 -5.5 3.38 C-4.94 2.77 -4.39 2.17 -3.82 1.54 C-2.5 0.38 -2.5 0.38 0 0 Z " fill="#FF9100" transform="translate(114.5,61.625)"/>
<path d="M0 0 C0.99 0.99 0.99 0.99 2 2 C1.75 5.56 1.75 5.56 1 9 C-1.72 10.36 -4.38 10.29 -7.37 10.49 C-31.31 12.27 -51.76 21.99 -68.31 39.43 C-83.65 57.65 -89.08 77.7 -89.21 101.08 C-89.22 102.43 -89.24 103.77 -89.25 105.12 C-89.31 110.79 -89.37 116.46 -89.4 122.13 C-89.42 125.62 -89.46 129.1 -89.5 132.59 C-89.52 134.55 -89.53 136.51 -89.53 138.48 C-89.55 139.67 -89.57 140.86 -89.58 142.09 C-89.59 143.14 -89.6 144.18 -89.61 145.26 C-90.05 148.38 -90.81 149.77 -93 152 C-95.5 152.5 -95.5 152.5 -98 152 C-101 148.91 -101.38 146.63 -101.39 142.4 C-101.4 141.27 -101.41 140.15 -101.42 138.99 C-101.41 137.77 -101.4 136.55 -101.4 135.3 C-101.4 134.04 -101.4 132.77 -101.41 131.47 C-101.41 128.79 -101.41 126.11 -101.39 123.42 C-101.38 120.71 -101.38 117.99 -101.39 115.27 C-101.55 81.08 -96.24 52.88 -71.75 27.31 C-52.5 8.73 -26.91 -2.11 0 0 Z " fill="#FFE379" transform="translate(259,112)"/>
<path d="M0 0 C8.94 6.6 16.11 15.32 18.47 26.42 C18.71 29.5 18.7 32.58 18.72 35.67 C18.74 36.49 18.76 37.31 18.79 38.16 C18.82 43.93 17.79 48.13 15.47 53.42 C12.17 52.76 8.87 52.1 5.47 51.42 C4.35 46.93 4.81 46.45 6.47 42.42 C7.57 32.68 6.16 24.05 0.22 16.11 C-6.26 9.78 -13.26 6.45 -22.4 6.11 C-31.62 6.36 -39.11 9.72 -45.53 16.42 C-49.49 22.65 -51.67 28.41 -51.71 35.8 C-51.74 37.48 -51.74 37.48 -51.76 39.2 C-51.53 42.39 -50.79 44.51 -49.53 47.42 C-49.53 48.41 -49.53 49.4 -49.53 50.42 C-53.16 51.41 -56.79 52.4 -60.53 53.42 C-63.1 47.45 -64.05 42.59 -63.96 36.11 C-63.96 35.27 -63.95 34.44 -63.94 33.58 C-63.61 21.47 -59.12 13.4 -50.91 4.71 C-37.57 -7.86 -15.41 -9.62 0 0 Z " fill="#FF9100" transform="translate(278.52734375,38.578125)"/>
<path d="M0 0 C12.73 5.33 22.88 24.66 29.69 36.12 C30.03 36.71 30.38 37.29 30.74 37.89 C44.15 60.84 51.79 88.05 52.06 114.62 C52.08 115.43 52.09 116.24 52.1 117.07 C52.06 122.64 52.06 122.64 50.35 124.87 C48.69 126.12 48.69 126.12 45.62 125.94 C42.69 125.12 42.69 125.12 40.69 123.12 C40.34 121 40.34 121 40.2 118.35 C40.13 117.37 40.07 116.39 40.01 115.38 C39.91 113.8 39.91 113.8 39.81 112.19 C37.19 76.5 24.41 42.62 -0.3 16.31 C-6.19 9.91 -6.19 9.91 -6.81 6 C-6.31 3.12 -6.31 3.12 -4.62 1.19 C-2.31 0.12 -2.31 0.12 0 0 Z " fill="#FF9100" transform="translate(371.3125,88.875)"/>
<path d="M0 0 C2 2 2 2 2.42 4.79 C1.86 9.05 0.3 10.34 -2.75 13.31 C-26.05 37.28 -41.07 70.91 -43.47 104.21 C-43.55 105.3 -43.63 106.39 -43.71 107.51 C-43.86 109.68 -43.99 111.85 -44.09 114.02 C-44.15 115.01 -44.21 116 -44.28 117.02 C-44.32 117.91 -44.36 118.8 -44.41 119.71 C-45 122 -45 122 -46.88 123.82 C-49 125 -49 125 -51.62 124.81 C-54 124 -54 124 -56 122 C-59.52 85.24 -44.41 44.67 -21.5 16.19 C-20.02 14.44 -18.52 12.72 -17 11 C-16.34 10.25 -16.34 10.25 -15.67 9.49 C-5.87 -1.62 -5.87 -1.62 0 0 Z " fill="#FF9100" transform="translate(145,90)"/>
</svg>
